<svg width="161" height="46" viewBox="0 0 161 46" fill="none" xmlns="http://www.w3.org/2000/svg">
<path d="M135.126 41.3201H140.042V32.5949L144.902 27.3824L154.508 41.3201H160.385L148.405 23.813L158.52 12.9915H152.361L140.042 26.306V2H135.126V41.3201ZM12.3748 42C19.0991 42 23.7326 38.5439 23.7326 33.2181C23.7326 28.2323 20.5682 25.6261 15.7087 25.0595L9.88857 24.3796C7.28929 24.0963 5.76363 23.0765 5.76363 20.3569C5.76363 17.9773 8.19339 16.2776 11.6968 16.2776C15.4827 16.2776 17.7429 17.9773 18.308 21.0935H23.2805C22.7155 15.0312 18.082 12.3116 11.7533 12.3116C5.19856 12.3116 0.791086 15.8244 0.791086 20.4703C0.791086 25.2295 3.6729 28.119 8.81496 28.6856L14.2961 29.3088C17.2909 29.6487 18.7035 30.9518 18.7035 33.5014C18.7035 36.221 16.3303 38.034 12.4313 38.034C8.2499 38.034 5.76363 36.1077 4.97254 32.4249H0C0.508555 38.4873 5.02905 42 12.3748 42ZM94.9718 41.3201H103.448V37.1275H96.3844C94.1807 37.1275 93.5026 36.2776 93.5026 33.9547V17.0142H102.713V12.9915H93.5026V3.64306H88.6431V11.745C88.6431 12.5382 88.191 12.9915 87.3999 12.9915H81.7493V17.0142H88.6431V34.6912C88.6431 39.4504 90.6773 41.3201 94.9718 41.3201ZM118.422 42C124.864 42 129.327 38.4306 130.458 32.4249H125.598C124.92 36.1077 122.603 37.7507 118.422 37.7507C113.223 37.7507 110.454 34.8045 110.059 28.4589H130.853C131.362 18.3173 126.672 12.3116 118.252 12.3116C109.889 12.3116 104.973 17.8074 104.973 27.0992C104.973 36.4476 109.946 42 118.422 42ZM110.059 24.6629C110.737 19.0538 113.393 16.3343 118.139 16.3343C122.999 16.3343 125.542 19.0538 125.881 24.6629H110.059ZM68.4704 42C75.1946 42 79.8281 38.5439 79.8281 33.2181C79.8281 28.2323 76.6638 25.6261 71.8043 25.0595L65.9841 24.3796C63.3848 24.0963 61.8592 23.0765 61.8592 20.3569C61.8592 17.9773 64.2889 16.2776 67.7923 16.2776C71.5782 16.2776 73.8385 17.9773 74.4035 21.0935H79.3761C78.811 15.0312 74.1775 12.3116 67.8488 12.3116C61.2941 12.3116 56.8866 15.8244 56.8866 20.4703C56.8866 25.2295 59.7685 28.119 64.9105 28.6856L70.3916 29.3088C73.3864 29.6487 74.7991 30.9518 74.7991 33.5014C74.7991 36.221 72.4258 38.034 68.5269 38.034C64.3455 38.034 61.8592 36.1077 61.0681 32.4249H56.0956C56.6041 38.4873 61.1246 42 68.4704 42Z" fill="#1A1A1A"/>
<path d="M51.8173 32.8213C51.8173 38.8836 49.444 41.3198 43.4544 41.3198L26.333 41.2632V37.0139H43.624L26.8416 15.6541L30.458 12.8779L47.359 34.517L47.4098 12.9912H51.8738L51.8173 32.8213Z" fill="#1A1A1A"/>
</svg>
